<?xml version="1.0" standalone="no"?>
<!DOCTYPE svg PUBLIC "-//W3C//DTD SVG 20010904//EN"
 "http://www.w3.org/TR/2001/REC-SVG-20010904/DTD/svg10.dtd">
<svg version="1.0" xmlns="http://www.w3.org/2000/svg"
 width="270.000000pt" height="278.000000pt" viewBox="0 0 270.000000 278.000000"
 preserveAspectRatio="xMidYMid meet">

<g transform="translate(0.000000,278.000000) scale(0.100000,-0.100000)"
fill="#000000" stroke="none">
<path d="M918 2770 c-142 -23 -272 -70 -402 -147 -97 -58 -272 -226 -335 -323
-251 -388 -237 -878 36 -1245 265 -357 726 -512 1150 -389 87 25 242 96 291
134 l27 20 400 -405 c357 -361 404 -405 438 -411 81 -14 159 36 173 111 14 76
5 87 -408 501 l-391 392 57 85 c72 109 121 216 154 336 23 86 26 114 26 271 0
160 -3 184 -28 275 -105 384 -396 675 -771 771 -112 28 -315 40 -417 24z m255
-160 c378 -44 690 -321 784 -697 13 -50 17 -108 17 -218 -1 -133 -4 -160 -27
-236 -35 -115 -68 -187 -121 -267 -115 -173 -309 -315 -508 -373 -94 -27 -301
-37 -401 -19 -403 72 -701 395 -747 807 -31 282 70 556 276 754 147 140 320
224 509 248 98 12 119 12 218 1z"/>
</g>
</svg>
